<?xml version="1.0" encoding="UTF-8" ?><svg xmlns="http://www.w3.org/2000/svg" version="1.1"><circle fill="rgb(127,200,35)" stroke="black" stroke-width="1" cx="982"  cy="50"  r="30" /><text fill="black" stroke="black" stroke-width="1" x="1012" y="50" dx="0" dy="0" font-size="30" >Philip1</text><circle fill="rgb(197,196,23)" stroke="black" stroke-width="1" cx="516"  cy="50"  r="30" /><text fill="black" stroke="black" stroke-width="1" x="546" y="50" dx="0" dy="0" font-size="30" >Joanna</text><polyline fill="none" stroke="rgb(127,200,35)" stroke-width="1" points="982,50 1250,141 " /><polyline fill="none" stroke="rgb(197,196,23)" stroke-width="1" points="516,50 1250,141 " /><circle fill="rgb(118,148,81)" stroke="black" stroke-width="1" cx="1250"  cy="141"  r="30" /><text fill="black" stroke="black" stroke-width="1" x="1280" y="141" dx="0" dy="0" font-size="30" >Charles5</text><circle fill="rgb(4,189,96)" stroke="black" stroke-width="1" cx="1050"  cy="141"  r="30" /><text fill="black" stroke="black" stroke-width="1" x="1080" y="141" dx="0" dy="0" font-size="30" >Isabella1</text><polyline fill="none" stroke="rgb(127,200,35)" stroke-width="1" points="982,50 850,141 " /><polyline fill="none" stroke="rgb(197,196,23)" stroke-width="1" points="516,50 850,141 " /><circle fill="rgb(163,160,56)" stroke="black" stroke-width="1" cx="850"  cy="141"  r="30" /><text fill="black" stroke="black" stroke-width="1" x="880" y="141" dx="0" dy="0" font-size="30" >Ferdinand1</text><circle fill="rgb(1,182,69)" stroke="black" stroke-width="1" cx="650"  cy="141"  r="30" /><text fill="black" stroke="black" stroke-width="1" x="680" y="141" dx="0" dy="0" font-size="30" >Anne</text><polyline fill="none" stroke="rgb(127,200,35)" stroke-width="1" points="982,50 450,141 " /><polyline fill="none" stroke="rgb(197,196,23)" stroke-width="1" points="516,50 450,141 " /><circle fill="rgb(137,136,80)" stroke="black" stroke-width="1" cx="450"  cy="141"  r="30" /><text fill="black" stroke="black" stroke-width="1" x="480" y="141" dx="0" dy="0" font-size="30" >Isabella2</text><circle fill="rgb(159,30,201)" stroke="black" stroke-width="1" cx="250"  cy="141"  r="30" /><text fill="black" stroke="black" stroke-width="1" x="280" y="141" dx="0" dy="0" font-size="30" >Christian2</text><polyline fill="none" stroke="rgb(118,148,81)" stroke-width="1" points="1250,141 1250,323 " /><polyline fill="none" stroke="rgb(4,189,96)" stroke-width="1" points="1050,141 1250,323 " /><circle fill="rgb(46,112,79)" stroke="black" stroke-width="1" cx="1250"  cy="323"  r="30" /><text fill="black" stroke="black" stroke-width="1" x="1280" y="323" dx="0" dy="0" font-size="30" >Philip2</text><polyline fill="none" stroke="rgb(118,148,81)" stroke-width="1" points="1250,141 1250,232 " /><polyline fill="none" stroke="rgb(4,189,96)" stroke-width="1" points="1050,141 1250,232 " /><circle fill="rgb(92,160,137)" stroke="black" stroke-width="1" cx="1250"  cy="232"  r="30" /><text fill="black" stroke="black" stroke-width="1" x="1280" y="232" dx="0" dy="0" font-size="30" >Maria</text><polyline fill="none" stroke="rgb(163,160,56)" stroke-width="1" points="850,141 1050,232 " /><polyline fill="none" stroke="rgb(1,182,69)" stroke-width="1" points="650,141 1050,232 " /><circle fill="rgb(112,188,75)" stroke="black" stroke-width="1" cx="1050"  cy="232"  r="30" /><text fill="black" stroke="black" stroke-width="1" x="1080" y="232" dx="0" dy="0" font-size="30" >Maximilian2</text><polyline fill="none" stroke="rgb(163,160,56)" stroke-width="1" points="850,141 1050,323 " /><polyline fill="none" stroke="rgb(1,182,69)" stroke-width="1" points="650,141 1050,323 " /><circle fill="rgb(84,181,121)" stroke="black" stroke-width="1" cx="1050"  cy="323"  r="30" /><text fill="black" stroke="black" stroke-width="1" x="1080" y="323" dx="0" dy="0" font-size="30" >Charles2Austria</text><polyline fill="none" stroke="rgb(163,160,56)" stroke-width="1" points="850,141 850,232 " /><polyline fill="none" stroke="rgb(1,182,69)" stroke-width="1" points="650,141 850,232 " /><circle fill="rgb(118,180,123)" stroke="black" stroke-width="1" cx="850"  cy="232"  r="30" /><text fill="black" stroke="black" stroke-width="1" x="880" y="232" dx="0" dy="0" font-size="30" >Anna1</text><circle fill="rgb(84,83,88)" stroke="black" stroke-width="1" cx="650"  cy="232"  r="30" /><text fill="black" stroke="black" stroke-width="1" x="680" y="232" dx="0" dy="0" font-size="30" >Albert5</text><polyline fill="none" stroke="rgb(137,136,80)" stroke-width="1" points="450,141 450,232 " /><polyline fill="none" stroke="rgb(159,30,201)" stroke-width="1" points="250,141 450,232 " /><circle fill="rgb(161,71,121)" stroke="black" stroke-width="1" cx="450"  cy="232"  r="30" /><text fill="black" stroke="black" stroke-width="1" x="480" y="232" dx="0" dy="0" font-size="30" >Christina</text><circle fill="rgb(31,6,224)" stroke="black" stroke-width="1" cx="250"  cy="232"  r="30" /><text fill="black" stroke="black" stroke-width="1" x="280" y="232" dx="0" dy="0" font-size="30" >Francis1</text><polyline fill="none" stroke="rgb(92,160,137)" stroke-width="1" points="1250,232 850,323 " /><polyline fill="none" stroke="rgb(112,188,75)" stroke-width="1" points="1050,232 850,323 " /><circle fill="rgb(90,133,77)" stroke="black" stroke-width="1" cx="850"  cy="323"  r="30" /><text fill="black" stroke="black" stroke-width="1" x="880" y="323" dx="0" dy="0" font-size="30" >Anna2</text><polyline fill="none" stroke="rgb(118,180,123)" stroke-width="1" points="850,232 650,323 " /><polyline fill="none" stroke="rgb(84,83,88)" stroke-width="1" points="650,232 650,323 " /><circle fill="rgb(115,168,82)" stroke="black" stroke-width="1" cx="650"  cy="323"  r="30" /><text fill="black" stroke="black" stroke-width="1" x="680" y="323" dx="0" dy="0" font-size="30" >MariaAnna</text><polyline fill="none" stroke="rgb(118,180,123)" stroke-width="1" points="850,232 450,323 " /><polyline fill="none" stroke="rgb(84,83,88)" stroke-width="1" points="650,232 450,323 " /><circle fill="rgb(141,119,133)" stroke="black" stroke-width="1" cx="450"  cy="323"  r="30" /><text fill="black" stroke="black" stroke-width="1" x="480" y="323" dx="0" dy="0" font-size="30" >William5</text><polyline fill="none" stroke="rgb(161,71,121)" stroke-width="1" points="450,232 250,323 " /><polyline fill="none" stroke="rgb(31,6,224)" stroke-width="1" points="250,232 250,323 " /><circle fill="rgb(73,27,137)" stroke="black" stroke-width="1" cx="250"  cy="323"  r="30" /><text fill="black" stroke="black" stroke-width="1" x="280" y="323" dx="0" dy="0" font-size="30" >Renata</text><polyline fill="none" stroke="rgb(46,112,79)" stroke-width="1" points="1250,323 1170,414 " /><polyline fill="none" stroke="rgb(90,133,77)" stroke-width="1" points="850,323 1170,414 " /><circle fill="rgb(122,134,57)" stroke="black" stroke-width="1" cx="1170"  cy="414"  r="30" /><text fill="black" stroke="black" stroke-width="1" x="1200" y="414" dx="0" dy="0" font-size="30" >Philip3</text><polyline fill="none" stroke="rgb(84,181,121)" stroke-width="1" points="1050,323 890,414 " /><polyline fill="none" stroke="rgb(115,168,82)" stroke-width="1" points="650,323 890,414 " /><circle fill="rgb(114,194,72)" stroke="black" stroke-width="1" cx="890"  cy="414"  r="30" /><text fill="black" stroke="black" stroke-width="1" x="920" y="414" dx="0" dy="0" font-size="30" >Margaret</text><polyline fill="none" stroke="rgb(84,181,121)" stroke-width="1" points="1050,323 610,414 " /><polyline fill="none" stroke="rgb(115,168,82)" stroke-width="1" points="650,323 610,414 " /><circle fill="rgb(76,145,130)" stroke="black" stroke-width="1" cx="610"  cy="414"  r="30" /><text fill="black" stroke="black" stroke-width="1" x="640" y="414" dx="0" dy="0" font-size="30" >Ferdinand2</text><polyline fill="none" stroke="rgb(141,119,133)" stroke-width="1" points="450,323 330,414 " /><polyline fill="none" stroke="rgb(73,27,137)" stroke-width="1" points="250,323 330,414 " /><circle fill="rgb(83,124,173)" stroke="black" stroke-width="1" cx="330"  cy="414"  r="30" /><text fill="black" stroke="black" stroke-width="1" x="360" y="414" dx="0" dy="0" font-size="30" >MariaAnna2</text><polyline fill="none" stroke="rgb(122,134,57)" stroke-width="1" points="1170,414 982,596 " /><polyline fill="none" stroke="rgb(114,194,72)" stroke-width="1" points="890,414 982,596 " /><circle fill="rgb(110,167,112)" stroke="black" stroke-width="1" cx="982"  cy="596"  r="30" /><text fill="black" stroke="black" stroke-width="1" x="1012" y="596" dx="0" dy="0" font-size="30" >Philip4</text><polyline fill="none" stroke="rgb(122,134,57)" stroke-width="1" points="1170,414 982,505 " /><polyline fill="none" stroke="rgb(114,194,72)" stroke-width="1" points="890,414 982,505 " /><circle fill="rgb(139,158,47)" stroke="black" stroke-width="1" cx="982"  cy="505"  r="30" /><text fill="black" stroke="black" stroke-width="1" x="1012" y="505" dx="0" dy="0" font-size="30" >MariaAnna3</text><polyline fill="none" stroke="rgb(76,145,130)" stroke-width="1" points="610,414 516,505 " /><polyline fill="none" stroke="rgb(83,124,173)" stroke-width="1" points="330,414 516,505 " /><circle fill="rgb(72,96,186)" stroke="black" stroke-width="1" cx="516"  cy="505"  r="30" /><text fill="black" stroke="black" stroke-width="1" x="546" y="505" dx="0" dy="0" font-size="30" >Ferdinand3</text><polyline fill="none" stroke="rgb(72,96,186)" stroke-width="1" points="516,505 516,596 " /><polyline fill="none" stroke="rgb(139,158,47)" stroke-width="1" points="982,505 516,596 " /><circle fill="rgb(100,150,139)" stroke="black" stroke-width="1" cx="516"  cy="596"  r="30" /><text fill="black" stroke="black" stroke-width="1" x="546" y="596" dx="0" dy="0" font-size="30" >Mariana</text><polyline fill="none" stroke="rgb(110,167,112)" stroke-width="1" points="982,596 750,687 " /><polyline fill="none" stroke="rgb(100,150,139)" stroke-width="1" points="516,596 750,687 " /><circle fill="rgb(101,174,126)" stroke="black" stroke-width="1" cx="750"  cy="687"  r="30" /><text fill="black" stroke="black" stroke-width="1" x="780" y="687" dx="0" dy="0" font-size="30" >Charles2Spain</text></svg>